HIERARCHY
ROOT mixamorig:Hips
{
	OFFSET 0.000000 201.639420 0.000000
	CHANNELS 6 Xposition Yposition Zposition Xrotation Yrotation Zrotation
	JOINT mixamorig:Spine
	{
		OFFSET 0.006200 19.524994 -2.481800
		CHANNELS 3 Xrotation Yrotation Zrotation
		JOINT mixamorig:Spine1
		{
			OFFSET -0.000900 22.835007 -2.825400
			CHANNELS 3 Xrotation Yrotation Zrotation
			JOINT mixamorig:Spine2
			{
				OFFSET -0.020600 26.552490 -3.193300
				CHANNELS 3 Xrotation Yrotation Zrotation
				JOINT mixamorig:Neck
				{
					OFFSET -0.060000 30.701813 1.352200
					CHANNELS 3 Xrotation Yrotation Zrotation
					JOINT mixamorig:Head
					{
						OFFSET -0.087200 22.547607 3.670900
						CHANNELS 3 Xrotation Yrotation Zrotation
						JOINT mixamorig:HeadTop_End
						{
							OFFSET -0.830600 40.355194 7.893500
							CHANNELS 3 Xrotation Yrotation Zrotation
							End Site
							{
								OFFSET 0.000000 30.592346 0.000000
							}
						}
						JOINT mixamorig:RightEye
						{
							OFFSET -6.302100 18.118591 16.197100
							CHANNELS 3 Xrotation Yrotation Zrotation
							End Site
							{
								OFFSET 0.000000 30.592346 0.000000
							}
						}
						JOINT mixamorig:LeftEye
						{
							OFFSET 6.741500 18.382690 16.401899
							CHANNELS 3 Xrotation Yrotation Zrotation
							End Site
							{
								OFFSET 0.000000 30.592346 0.000000
							}
						}
					}
				}
				JOINT mixamorig:LeftShoulder
				{
					OFFSET 11.924900 18.230499 1.425400
					CHANNELS 3 Xrotation Yrotation Zrotation
					JOINT mixamorig:LeftArm
					{
						OFFSET 25.435989 -0.697632 -5.229300
						CHANNELS 3 Xrotation Yrotation Zrotation
						JOINT mixamorig:LeftForeArm
						{
							OFFSET 54.684776 0.000000 0.000000
							CHANNELS 3 Xrotation Yrotation Zrotation
							JOINT mixamorig:LeftHand
							{
								OFFSET 55.098175 0.000000 0.000000
								CHANNELS 3 Xrotation Yrotation Zrotation
								JOINT mixamorig:LeftHandMiddle1
								{
									OFFSET 23.369751 0.000000 0.000000
									CHANNELS 3 Xrotation Yrotation Zrotation
									JOINT mixamorig:LeftHandMiddle2
									{
										OFFSET 6.378677 0.000000 0.000000
										CHANNELS 3 Xrotation Yrotation Zrotation
										JOINT mixamorig:LeftHandMiddle3
										{
											OFFSET 6.148331 0.000000 0.000000
											CHANNELS 3 Xrotation Yrotation Zrotation
											JOINT mixamorig:LeftHandMiddle4
											{
												OFFSET 6.582504 0.000000 0.000000
												CHANNELS 3 Xrotation Yrotation Zrotation
												End Site
												{
													OFFSET -1.168900 6.395691 1.028606
												}
											}
										}
									}
								}
								JOINT mixamorig:LeftHandThumb1
								{
									OFFSET 7.235672 -3.848206 5.434273
									CHANNELS 3 Xrotation Yrotation Zrotation
									JOINT mixamorig:LeftHandThumb2
									{
										OFFSET 6.568451 -3.792297 3.792300
										CHANNELS 3 Xrotation Yrotation Zrotation
										JOINT mixamorig:LeftHandThumb3
										{
											OFFSET 6.063080 -3.500519 3.500518
											CHANNELS 3 Xrotation Yrotation Zrotation
											JOINT mixamorig:LeftHandThumb4
											{
												OFFSET 4.793182 -2.767334 2.767349
												CHANNELS 3 Xrotation Yrotation Zrotation
												End Site
												{
													OFFSET 0.101639 6.054260 1.275483
												}
											}
										}
									}
								}
								JOINT mixamorig:LeftHandIndex1
								{
									OFFSET 23.101074 -0.309540 4.992809
									CHANNELS 3 Xrotation Yrotation Zrotation
									JOINT mixamorig:LeftHandIndex2
									{
										OFFSET 6.226883 0.000000 0.000000
										CHANNELS 3 Xrotation Yrotation Zrotation
										JOINT mixamorig:LeftHandIndex3
										{
											OFFSET 6.094330 0.000000 0.000000
											CHANNELS 3 Xrotation Yrotation Zrotation
											JOINT mixamorig:LeftHandIndex4
											{
												OFFSET 5.482605 0.000000 0.000000
												CHANNELS 3 Xrotation Yrotation Zrotation
												End Site
												{
													OFFSET -1.427902 5.233032 0.797164
												}
											}
										}
									}
								}
								JOINT mixamorig:LeftHandRing1
								{
									OFFSET 22.299240 0.021149 -3.964172
									CHANNELS 3 Xrotation Yrotation Zrotation
									JOINT mixamorig:LeftHandRing2
									{
										OFFSET 6.321869 0.000000 0.000000
										CHANNELS 3 Xrotation Yrotation Zrotation
										JOINT mixamorig:LeftHandRing3
										{
											OFFSET 5.899796 0.000000 0.000000
											CHANNELS 3 Xrotation Yrotation Zrotation
											JOINT mixamorig:LeftHandRing4
											{
												OFFSET 6.517899 0.000000 0.000000
												CHANNELS 3 Xrotation Yrotation Zrotation
												End Site
												{
													OFFSET -1.637299 6.232208 0.980890
												}
											}
										}
									}
								}
								JOINT mixamorig:LeftHandPinky1
								{
									OFFSET 20.463791 -0.302338 -8.562233
									CHANNELS 3 Xrotation Yrotation Zrotation
									JOINT mixamorig:LeftHandPinky2
									{
										OFFSET 6.908646 0.000000 0.000000
										CHANNELS 3 Xrotation Yrotation Zrotation
										JOINT mixamorig:LeftHandPinky3
										{
											OFFSET 4.622849 0.000000 0.000000
											CHANNELS 3 Xrotation Yrotation Zrotation
											JOINT mixamorig:LeftHandPinky4
											{
												OFFSET 5.216080 0.000000 0.000000
												CHANNELS 3 Xrotation Yrotation Zrotation
												End Site
												{
													OFFSET -0.606308 5.116241 0.814926
												}
											}
										}
									}
								}
							}
						}
					}
				}
				JOINT mixamorig:RightShoulder
				{
					OFFSET -12.001300 18.284088 1.348900
					CHANNELS 3 Xrotation Yrotation Zrotation
					JOINT mixamorig:RightArm
					{
						OFFSET -25.308500 -0.751312 -5.164599
						CHANNELS 3 Xrotation Yrotation Zrotation
						JOINT mixamorig:RightForeArm
						{
							OFFSET -54.684429 0.000000 0.000000
							CHANNELS 3 Xrotation Yrotation Zrotation
							JOINT mixamorig:RightHand
							{
								OFFSET -55.150291 0.000000 0.000000
								CHANNELS 3 Xrotation Yrotation Zrotation
								JOINT mixamorig:RightHandMiddle1
								{
									OFFSET -23.317566 0.000000 0.000000
									CHANNELS 3 Xrotation Yrotation Zrotation
									JOINT mixamorig:RightHandMiddle2
									{
										OFFSET -6.378403 0.000000 0.000000
										CHANNELS 3 Xrotation Yrotation Zrotation
										JOINT mixamorig:RightHandMiddle3
										{
											OFFSET -6.148193 0.000000 0.000000
											CHANNELS 3 Xrotation Yrotation Zrotation
											JOINT mixamorig:RightHandMiddle4
											{
												OFFSET -6.583389 0.000000 0.000000
												CHANNELS 3 Xrotation Yrotation Zrotation
												End Site
												{
													OFFSET 1.171692 6.395905 1.029786
												}
											}
										}
									}
								}
								JOINT mixamorig:RightHandThumb1
								{
									OFFSET -7.190521 -3.860474 5.435846
									CHANNELS 3 Xrotation Yrotation Zrotation
									JOINT mixamorig:RightHandThumb2
									{
										OFFSET -6.567429 -3.791718 3.791708
										CHANNELS 3 Xrotation Yrotation Zrotation
										JOINT mixamorig:RightHandThumb3
										{
											OFFSET -6.062469 -3.500153 3.500166
											CHANNELS 3 Xrotation Yrotation Zrotation
											JOINT mixamorig:RightHandThumb4
											{
												OFFSET -4.792618 -2.767029 2.767022
												CHANNELS 3 Xrotation Yrotation Zrotation
												End Site
												{
													OFFSET -0.100327 6.053253 1.276754
												}
											}
										}
									}
								}
								JOINT mixamorig:RightHandIndex1
								{
									OFFSET -23.048981 -0.310791 4.992554
									CHANNELS 3 Xrotation Yrotation Zrotation
									JOINT mixamorig:RightHandIndex2
									{
										OFFSET -6.227539 0.000000 0.000000
										CHANNELS 3 Xrotation Yrotation Zrotation
										JOINT mixamorig:RightHandIndex3
										{
											OFFSET -6.095047 0.000000 0.000000
											CHANNELS 3 Xrotation Yrotation Zrotation
											JOINT mixamorig:RightHandIndex4
											{
												OFFSET -5.484772 0.000000 0.000000
												CHANNELS 3 Xrotation Yrotation Zrotation
												End Site
												{
													OFFSET 1.420593 5.237305 0.797056
												}
											}
										}
									}
								}
								JOINT mixamorig:RightHandRing1
								{
									OFFSET -22.246323 0.020569 -3.963762
									CHANNELS 3 Xrotation Yrotation Zrotation
									JOINT mixamorig:RightHandRing2
									{
										OFFSET -6.322128 0.000000 0.000000
										CHANNELS 3 Xrotation Yrotation Zrotation
										JOINT mixamorig:RightHandRing3
										{
											OFFSET -5.900024 0.000000 0.000000
											CHANNELS 3 Xrotation Yrotation Zrotation
											JOINT mixamorig:RightHandRing4
											{
												OFFSET -6.518356 0.000000 0.000000
												CHANNELS 3 Xrotation Yrotation Zrotation
												End Site
												{
													OFFSET 1.636398 6.232697 0.982186
												}
											}
										}
									}
								}
								JOINT mixamorig:RightHandPinky1
								{
									OFFSET -20.411011 -0.303314 -8.561701
									CHANNELS 3 Xrotation Yrotation Zrotation
									JOINT mixamorig:RightHandPinky2
									{
										OFFSET -6.907349 0.000000 0.000000
										CHANNELS 3 Xrotation Yrotation Zrotation
										JOINT mixamorig:RightHandPinky3
										{
											OFFSET -4.623840 0.000000 0.000000
											CHANNELS 3 Xrotation Yrotation Zrotation
											JOINT mixamorig:RightHandPinky4
											{
												OFFSET -5.218353 0.000000 0.000000
												CHANNELS 3 Xrotation Yrotation Zrotation
												End Site
												{
													OFFSET 0.602097 5.118835 0.816273
												}
											}
										}
									}
								}
							}
						}
					}
				}
			}
		}
	}
	JOINT mixamorig:LeftUpLeg
	{
		OFFSET 18.168400 -13.561905 -0.039000
		CHANNELS 3 Xrotation Yrotation Zrotation
		JOINT mixamorig:LeftLeg
		{
			OFFSET 0.577358 -80.825211 -3.695000
			CHANNELS 3 Xrotation Yrotation Zrotation
			JOINT mixamorig:LeftFoot
			{
				OFFSET -0.577356 -83.370262 -6.520700
				CHANNELS 3 Xrotation Yrotation Zrotation
				JOINT mixamorig:LeftToeBase
				{
					OFFSET 0.750401 -20.798306 25.135401
					CHANNELS 3 Xrotation Yrotation Zrotation
					JOINT mixamorig:LeftToe_End
					{
						OFFSET -0.000500 0.001200 19.917799
						CHANNELS 3 Xrotation Yrotation Zrotation
						End Site
						{
							OFFSET 0.000000 19.917805 0.000000
						}
					}
				}
			}
		}
	}
	JOINT mixamorig:RightUpLeg
	{
		OFFSET -18.162500 -13.585098 -0.041000
		CHANNELS 3 Xrotation Yrotation Zrotation
		JOINT mixamorig:RightLeg
		{
			OFFSET -0.595024 -80.945297 -3.631900
			CHANNELS 3 Xrotation Yrotation Zrotation
			JOINT mixamorig:RightFoot
			{
				OFFSET 0.595024 -83.218193 -6.561200
				CHANNELS 3 Xrotation Yrotation Zrotation
				JOINT mixamorig:RightToeBase
				{
					OFFSET -0.753601 -20.807106 25.115000
					CHANNELS 3 Xrotation Yrotation Zrotation
					JOINT mixamorig:RightToe_End
					{
						OFFSET 0.000299 0.001700 19.918200
						CHANNELS 3 Xrotation Yrotation Zrotation
						End Site
						{
							OFFSET 0.000000 19.918203 0.000000
						}
					}
				}
			}
		}
	}
}
MOTION
Frames: 4
Frame Time: 0.033333
0.408233 27.929779 7.392197 82.051090 -4.031513 -2.861345 5.834771 -1.487966 -0.174951 -4.489567 -5.991871 1.133580 -3.963152 -6.232788 0.294004 -32.810876 -1.738837 15.961090 -6.162221 25.332803 -4.856396 0.000001 -0.000000 -0.000000 0.000001 -0.000000 -0.000000 0.000001 -0.000000 -0.000000 -32.393887 -38.499761 29.777122 -79.347619 -12.378742 -42.722966 0.000030 -47.703940 0.000030 -117.734088 16.530665 25.123464 0.396541 5.527453 -52.960351 3.409806 5.319043 -65.302120 0.289660 1.821057 -18.074738 -0.000002 0.000001 -0.000000 1.180773 0.368746 2.073819 19.601147 -1.516413 7.616691 -4.539483 -9.599919 1.530896 0.000001 0.000001 0.000001 -1.884166 2.150855 -39.979611 2.952699 5.084941 -60.264057 0.517059 2.408358 -24.231134 -0.000003 0.000000 0.000001 -0.059510 5.761731 -61.294609 4.463307 5.684675 -76.256917 0.602926 2.590499 -26.199668 -0.000002 -0.000003 -0.000002 2.483490 7.198733 -64.422495 4.462142 5.684380 -76.245094 1.320317 3.706210 -39.205457 0.000000 -0.000003 -0.000000 -20.875556 19.365589 15.385536 -54.380405 49.132020 38.262395 -0.000028 110.321106 0.000033 -42.857548 -7.956714 -56.538335 3.351859 -7.121235 52.047602 6.295310 -4.360164 110.614791 0.248345 -1.501927 18.775587 0.000002 0.000000 0.000001 8.491494 -4.567263 10.976536 21.602457 -18.195813 -18.388203 -0.832508 -49.668842 -32.556428 0.000001 -0.000001 -0.000002 -1.135714 1.373742 15.632333 1.421520 -3.351344 45.959629 0.615859 -2.316434 29.773105 0.000002 -0.000001 -0.000001 -3.603215 -2.486420 57.376594 5.439213 -4.591183 99.677609 1.688832 -3.590206 50.373209 -0.000000 -0.000001 0.000004 -4.171868 -3.222940 64.614423 4.103054 -4.624155 83.159349 2.321271 -4.030111 59.868924 -0.000002 -0.000000 0.000001 -13.054751 32.966195 21.307284 22.636852 -9.316912 -9.837256 -10.058832 15.028467 23.397851 8.056384 14.632260 40.536790 0.000002 -0.000000 0.000001 -43.712162 -38.316890 -50.470938 30.914321 -2.200808 -0.399698 -5.275616 7.953185 13.553823 16.904525 -3.443579 -12.206451 -0.000000 0.000001 0.000001 
0.425550 27.923264 7.413788 82.056656 -4.054502 -2.851010 5.834824 -1.488134 -0.174235 -4.489827 -5.986040 1.133581 -3.963407 -6.226610 0.293999 -32.802653 -1.723547 15.997046 -6.183827 25.469675 -4.918328 -0.000001 0.000000 -0.000000 -0.000001 0.000000 -0.000000 -0.000001 0.000000 -0.000000 -32.421054 -38.493666 29.740310 -79.324806 -12.392253 -42.801688 0.000005 -47.607942 0.000004 -117.733009 16.523821 25.063255 0.396185 5.514680 -52.731082 3.403745 5.316270 -65.236954 0.287620 1.814783 -18.010184 0.000001 0.000002 0.000001 1.339234 0.403918 2.306410 19.486301 -1.535724 7.628958 -4.540723 -9.604941 1.520577 -0.000005 0.000001 -0.000001 -1.883943 2.143198 -39.923716 2.951191 5.084069 -60.246927 0.516369 2.406782 -24.214332 0.000001 -0.000000 -0.000002 -0.058796 5.755539 -61.203092 4.451598 5.681808 -76.138605 0.596632 2.577696 -26.060351 -0.000001 -0.000001 0.000001 2.368096 7.143315 -64.393227 4.448080 5.680940 -76.103067 1.310930 3.694695 -39.060056 -0.000001 0.000001 0.000000 -20.874940 19.415718 15.397850 -54.324722 49.033402 38.229269 -0.000015 110.353440 0.000036 -42.865495 -8.038856 -56.497750 3.381365 -7.151356 51.878692 6.296868 -4.359589 110.635145 0.248345 -1.501929 18.775589 0.000001 -0.000000 0.000001 8.423278 -4.715454 10.984513 21.603709 -18.188823 -18.387002 -0.773990 -49.750224 -32.561339 -0.000002 0.000001 0.000002 -1.122138 1.389887 15.436613 1.421505 -3.351355 45.959643 0.615859 -2.316435 29.773109 0.000001 0.000000 -0.000001 -3.496775 -2.534442 57.228994 5.440066 -4.591038 99.688100 1.688837 -3.590211 50.373209 0.000000 0.000001 -0.000007 -4.101174 -3.255600 64.606356 4.082885 -4.621726 82.909330 2.317737 -4.028074 59.818373 0.000000 -0.000000 -0.000002 -13.024976 33.001340 21.299083 22.604931 -9.319324 -9.849017 -10.062583 15.027801 23.413460 8.121010 14.533369 40.339019 -0.000000 0.000002 -0.000003 -43.570794 -38.328856 -50.226920 30.724752 -2.196524 -0.601471 -5.235794 7.923390 13.722638 15.397292 -2.816240 -10.967958 -0.000001 0.000003 -0.000000 
0.442913 27.917816 7.429550 82.056028 -4.065046 -2.853644 5.834920 -1.488264 -0.163922 -4.493734 -5.986043 1.133579 -3.967237 -6.226607 0.294002 -32.802656 -1.715239 16.016947 -6.189124 25.537160 -4.975264 -0.000002 0.000001 -0.000000 -0.000002 0.000001 -0.000000 -0.000002 0.000001 -0.000000 -32.435465 -38.492364 29.721425 -79.302219 -12.381634 -42.831406 -0.000016 -47.589603 -0.000023 -117.722641 16.520636 25.050088 0.398221 5.509997 -52.616608 3.398602 5.313914 -65.181247 0.285877 1.809407 -17.955042 0.000002 -0.000001 -0.000000 1.428430 0.423393 2.455485 19.462040 -1.523271 7.633731 -4.541321 -9.603348 1.512433 0.000000 0.000003 -0.000001 -1.883801 2.138276 -39.887803 2.950011 5.083393 -60.233512 0.515789 2.405522 -24.200866 -0.000001 -0.000001 0.000000 -0.061892 5.750078 -61.150745 4.441940 5.679444 -76.041063 0.591964 2.568125 -25.956254 0.000001 0.000003 0.000006 2.308326 7.114984 -64.396506 4.439016 5.678706 -76.011536 1.304934 3.687306 -38.966806 0.000000 0.000001 0.000001 -20.874289 19.445444 15.405171 -54.289390 48.991769 38.213105 0.000007 110.366220 -0.000010 -42.863901 -8.065107 -56.478527 3.393894 -7.164809 51.795114 6.297087 -4.359475 110.638177 0.248324 -1.501929 18.775594 0.000001 -0.000000 -0.000001 8.400521 -4.785178 10.994494 21.603718 -18.188797 -18.387004 -0.747125 -49.780850 -32.553139 -0.000002 -0.000002 -0.000003 -1.115793 1.399976 15.337663 1.421527 -3.351338 45.959663 0.615859 -2.316434 29.773109 0.000001 -0.000000 -0.000001 -3.443116 -2.558556 57.151765 5.440068 -4.591037 99.688079 1.688838 -3.590228 50.373226 0.000000 -0.000001 -0.000000 -4.064634 -3.272926 64.605147 4.073291 -4.620498 82.789966 2.316227 -4.027194 59.797022 0.000000 -0.000001 -0.000000 -13.004845 33.022899 21.296359 22.577662 -9.322897 -9.849213 -10.067829 15.028636 23.419127 8.153738 14.494884 40.260547 -0.000002 -0.000001 0.000001 -43.470456 -38.362075 -50.061943 30.529163 -2.190265 -0.756013 -5.139916 7.907902 13.818013 15.027926 -2.700200 -10.736545 -0.000000 0.000002 0.000001 
0.457310 27.913406 7.442169 82.055188 -4.073063 -2.856603 5.834996 -1.488382 -0.155069 -4.493739 -5.986039 1.133581 -3.967236 -6.226612 0.294003 -32.802649 -1.712069 16.034163 -6.192422 25.589715 -5.023599 -0.000002 0.000000 -0.000001 -0.000002 0.000000 -0.000001 -0.000002 0.000000 -0.000001 -32.444700 -38.484967 29.706562 -79.283504 -12.371614 -42.852723 -0.000005 -47.584046 0.000008 -117.714062 16.516198 25.044171 0.400459 5.507405 -52.537228 3.394167 5.311849 -65.133340 0.284378 1.804776 -17.907554 0.000003 0.000002 -0.000000 1.492287 0.438368 2.568958 19.460766 -1.511887 7.635387 -4.541800 -9.602076 1.505753 -0.000002 0.000001 -0.000001 -1.883675 2.134257 -39.858402 2.948922 5.082761 -60.221129 0.515263 2.404362 -24.188340 0.000002 -0.000000 -0.000001 -0.064224 5.745963 -61.111198 4.434065 5.677471 -75.961320 0.588188 2.560363 -25.871916 -0.000001 0.000000 -0.000000 2.265488 7.094845 -64.405972 4.432024 5.676957 -75.940939 1.300320 3.681632 -38.895004 0.000000 -0.000001 0.000000 -20.872799 19.470392 15.408261 -54.263176 48.959182 38.199923 0.000006 110.376315 -0.000020 -42.862835 -8.083291 -56.464054 3.403202 -7.174955 51.730121 6.297095 -4.359504 110.638177 0.248322 -1.501928 18.775591 0.000001 0.000000 -0.000000 8.386305 -4.839244 11.004916 21.603709 -18.188799 -18.387011 -0.725964 -49.803014 -32.543191 -0.000002 -0.000002 -0.000004 -1.110729 1.407983 15.259344 1.421505 -3.351349 45.959633 0.615859 -2.316434 29.773105 0.000001 0.000000 0.000001 -3.401184 -2.577331 57.090153 5.440068 -4.591032 99.688079 1.688834 -3.590224 50.373209 -0.000000 -0.000000 0.000001 -4.034988 -3.286978 64.604184 4.066377 -4.619636 82.704213 2.315600 -4.026819 59.787856 -0.000001 0.000000 -0.000003 -12.989487 33.040087 21.295712 22.557108 -9.324492 -9.847173 -10.073557 15.029276 23.420860 8.178815 14.461230 40.190763 -0.000001 -0.000001 0.000000 -43.392021 -38.389946 -49.932713 30.370887 -2.182038 -0.878196 -5.057902 7.896337 13.887804 14.822151 -2.648473 -10.637552 -0.000001 -0.000001 -0.000000 
